<svg xmlns="http://www.w3.org/2000/svg" width="60" height="16" fill="currentColor" viewBox="0 0 60 16">
  <g transform="translate(5,0)">
     <path fill-rule="evenodd" d="M11.854 3.646a.5.5 0 0 1 0 .708L8.207 8l3.647 3.646a.5.5 0 0 1-.708.708l-4-4a.5.5 0 0 1 0-.708l4-4a.5.5 0 0 1 .708 0M4.5 1a.5.5 0 0 0-.5.5v13a.5.5 0 0 0 1 0v-13a.5.5 0 0 0-.5-.5"/>
</g>
  <g transform="translate(22,0)">
    <path d="M2 0a2 2 0 0 0-2 2v12a2 2 0 0 0 2 2h12a2 2 0 0 0 2-2V2a2 2 0 0 0-2-2zm6.5 4.5v3h3a.5.5 0 0 1 0 1h-3v3a.5.5 0 0 1-1 0v-3h-3a.5.5 0 0 1 0-1h3v-3a.5.5 0 0 1 1 0" style="fill:green"/>
  </g>
  <g transform="translate(39,0)">
    <path fill-rule="evenodd" d="M4.146 3.646a.5.5 0 0 0 0 .708L7.793 8l-3.647 3.646a.5.5 0 0 0 .708.708l4-4a.5.5 0 0 0 0-.708l-4-4a.5.5 0 0 0-.708 0M11.5 1a.5.5 0 0 1 .5.5v13a.5.5 0 0 1-1 0v-13a.5.5 0 0 1 .5-.5"/>
  </g>
</svg>
