<svg xmlns="http://www.w3.org/2000/svg" width="16" height="16" fill="currentColor" viewBox="0 0 16 16">
  <path d="M6.354 5.5H4a3 3 0 0 0 0 6h3a3 3 0 0 0 2.83-4H9q-.13 0-.25.031A2 2 0 0 1 7 10.5H4a2 2 0 1 1 0-4h1.535c.218-.376.495-.714.82-1z"/>
  <path d="M9 5.5a3 3 0 0 0-2.83 4h1.098A2 2 0 0 1 9 6.5h3a2 2 0 1 1 0 4h-1.535a4 4 0 0 1-.82 1H12a3 3 0 1 0 0-6z" transform="translate(5, 0)"/>
  <path d="M7 7.5V9a.5.5 0 0 0 .5.5h1a.5.5 0 0 0 .5-.5V7.5a.5.5 0 0 0-.5-.5h-1a.5.5 0 0 0-.5.5zm-1-4a.5.5 0 0 1 .5-.5h2a.5.5 0 0 1 .5.5v1a.5.5 0 0 1-.5.5h-2a.5.5 0 0 1-.5-.5V3.5z"/>
</svg>
